HIERARCHY
ROOT Hips
{
	OFFSET -3.958830 18.904000 13.208200
	CHANNELS 6 Xposition Yposition Zposition Zrotation Yrotation Xrotation 
	JOINT LHipJoint
	{
		OFFSET 0.000000 0.000000 0.000000
		CHANNELS 3 Zrotation Yrotation Xrotation
		JOINT LeftUpLeg
		{
			OFFSET 1.800000 -1.400000 0.085000
			CHANNELS 3 Zrotation Yrotation Xrotation
			JOINT LeftLeg
			{
				OFFSET 2.215000 -6.000000 0.000000
				CHANNELS 3 Zrotation Yrotation Xrotation
				JOINT LeftFoot
				{
					OFFSET 2.500000 -6.900000 0.000000
					CHANNELS 3 Zrotation Yrotation Xrotation
					JOINT LeftToeBase
					{
						OFFSET 0.200000 -0.500000 1.950000
						CHANNELS 3 Zrotation Yrotation Xrotation
						End Site
						{
							OFFSET 0.000000 0.000000 0.000000
						}
					}
				}
			}
		}
	}
	JOINT RHipJoint
	{
		OFFSET 0.000000 0.000000 0.000000
		CHANNELS 3 Zrotation Yrotation Xrotation
		JOINT RightUpLeg
		{
			OFFSET -1.800000 -1.400000 0.085000
			CHANNELS 3 Zrotation Yrotation Xrotation
			JOINT RightLeg
			{
				OFFSET -2.215000 -6.000000 0.000000
				CHANNELS 3 Zrotation Yrotation Xrotation
				JOINT RightFoot
				{
					OFFSET -2.500000 -6.900000 0.000000
					CHANNELS 3 Zrotation Yrotation Xrotation
					JOINT RightToeBase
					{
						OFFSET -0.200000 -0.500000 1.950000
						CHANNELS 3 Zrotation Yrotation Xrotation
						End Site
						{
							OFFSET 0.000000 0.000000 0.000000
						}
					}
				}
			}
		}
	}
	JOINT LowerBack
	{
		OFFSET 0.000000 0.000000 0.000000
		CHANNELS 3 Zrotation Yrotation Xrotation
		JOINT Spine
		{
			OFFSET -0.087000 1.940000 -0.288900
			CHANNELS 3 Zrotation Yrotation Xrotation
			JOINT Spine1
			{
				OFFSET 0.000000 1.950000 0.060000
				CHANNELS 3 Zrotation Yrotation Xrotation
				JOINT Neck
				{
					OFFSET 0.000000 0.000000 0.000000
					CHANNELS 3 Zrotation Yrotation Xrotation
					JOINT Neck1
					{
						OFFSET 0.000000 1.600000 0.340000
						CHANNELS 3 Zrotation Yrotation Xrotation
						JOINT Head
						{
							OFFSET 0.000000 1.667000 -0.240000
							CHANNELS 3 Zrotation Yrotation Xrotation
							End Site
							{
								OFFSET 0.000000 0.000000 0.000000
							}
						}
					}
				}
				JOINT LeftShoulder
				{
					OFFSET 0.000000 0.000000 0.000000
					CHANNELS 3 Zrotation Yrotation Xrotation
					JOINT LeftArm
					{
						OFFSET 2.700000 1.550000 -0.730000
						CHANNELS 3 Zrotation Yrotation Xrotation
						JOINT LeftForeArm
						{
							OFFSET 5.450000 0.000000 0.000000
							CHANNELS 3 Zrotation Yrotation Xrotation
							JOINT LeftHand
							{
								OFFSET 3.450000 0.000000 0.000000
								CHANNELS 3 Zrotation Yrotation Xrotation
								JOINT LeftHandIndex1
								{
									OFFSET 0.750000 0.000000 0.000000
									CHANNELS 3 Zrotation Yrotation Xrotation
									End Site
									{
										OFFSET 0.000000 0.000000 0.000000
									}
								}
							}
						}
					}
				}
				JOINT RightShoulder
				{
					OFFSET 0.000000 0.000000 0.000000
					CHANNELS 3 Zrotation Yrotation Xrotation
					JOINT RightArm
					{
						OFFSET -2.700000 1.550000 -0.730000
						CHANNELS 3 Zrotation Yrotation Xrotation
						JOINT RightForeArm
						{
							OFFSET -5.450000 0.000000 0.000000
							CHANNELS 3 Zrotation Yrotation Xrotation
							JOINT RightHand
							{
								OFFSET -3.450000 0.000000 0.000000
								CHANNELS 3 Zrotation Yrotation Xrotation
								JOINT RightHandIndex1
								{
									OFFSET -0.750000 0.000000 0.000000
									CHANNELS 3 Zrotation Yrotation Xrotation
									End Site
									{
										OFFSET 0.000000 0.000000 0.000000
									}
								}
							}
						}
					}
				}
			}
		}
	}
}
MOTION
Frames: 9
Frame Time: 0.016667
-1.423890 16.861550 -1.999870 -6.254848 -14.162326 -13.886158 -15.839802 14.992474 3.275535 10.241434 -1.958498 -13.608026 -7.898083 11.616171 36.592674 0.576462 7.401885 1.911855 0.066960 -0.095830 0.038070 17.371969 -10.048874 2.881179 -1.039709 -1.636709 3.066962 6.890330 -6.030155 14.548070 -0.327329 -4.163189 3.167185 -0.126330 -0.087270 -0.114810 -1.048840 -5.688976 -8.698887 16.190151 -2.205423 34.658664 -6.995209 10.252024 -3.579681 18.381014 -1.964613 -13.922282 -3.351329 -13.411292 39.345267 -1.395320 -17.292310 -8.145730 -22.293382 8.327319 -0.841226 -61.757391 17.590085 -15.025164 -55.787767 -55.098830 23.146484 -3.251110 3.308113 0.295200 -0.163330 -0.051090 0.011240 -15.108625 9.865273 10.310947 -27.252415 -9.068167 -3.665821 -30.852214 -0.054494 -0.178117 2.895303 -1.406183 -0.073960 0.083330 0.004300 -0.090870 
-1.421700 16.860820 -1.995190 -6.177293 -14.901027 -13.548005 -15.913205 15.134407 3.275392 9.878188 -2.060152 -13.695814 -7.388268 11.258333 36.342978 0.555052 7.292804 1.942612 0.045530 -0.132670 0.041990 17.305549 -9.936450 2.837807 -1.028091 -1.575626 2.713908 6.724933 -5.962657 14.537593 -0.303353 -4.089990 3.186553 -0.153790 -0.099060 -0.101300 -0.826197 -6.128827 -8.743791 15.390737 -1.946525 34.914763 -5.831042 10.744641 -4.603401 18.308309 -1.582939 -14.231579 -2.836696 -13.611451 40.121378 -2.365580 -17.225470 -6.896350 -21.523712 9.069524 -0.868700 -62.157085 18.645547 -14.799264 -57.511689 -54.358339 23.836276 -3.273258 3.296883 0.299700 -0.158630 -0.048920 -0.006760 -15.699378 9.448354 10.629325 -26.478246 -10.082391 -3.485406 -31.608766 -0.544439 0.037790 2.900168 -1.408413 -0.069880 0.059990 0.017070 -0.102160 
-1.415600 16.865480 -1.999240 -6.149191 -15.502983 -13.461246 -15.974373 15.274005 3.267951 9.536075 -2.168089 -13.620068 -6.811630 10.891714 36.229800 0.527681 7.186848 1.969873 0.057020 -0.131440 0.076760 17.250619 -9.829339 2.798030 -1.116733 -1.543015 2.635957 6.751469 -5.987811 14.687692 -0.312266 -4.045079 3.194574 -0.160280 -0.133230 -0.098340 -0.642584 -6.563582 -8.774567 14.907026 -1.835605 35.570507 -5.105341 11.144241 -5.591421 18.296238 -1.059684 -14.437681 -2.058904 -13.872609 41.143890 -2.733090 -17.041120 -7.093190 -21.123555 9.484681 -0.839758 -62.310392 19.486500 -14.782227 -58.736139 -53.869776 24.277093 -3.263516 3.275240 0.330240 -0.177570 -0.022160 -0.018440 -16.080768 9.113004 10.832924 -25.920769 -10.889062 -3.502226 -32.555368 -1.447689 0.308035 2.905431 -1.393185 -0.067490 0.051390 0.007520 -0.121880 
-1.409640 16.867230 -2.001690 -6.195427 -16.122487 -13.406300 -16.028870 15.415746 3.267299 9.269301 -2.290345 -13.561035 -6.230552 10.595802 36.354317 0.503728 7.137156 1.974472 0.057860 -0.140890 0.095840 17.203107 -9.718527 2.756156 -1.084583 -1.519681 2.590629 6.751485 -6.061657 15.194333 -0.315339 -4.035403 3.183100 -0.166990 -0.160150 -0.095390 -0.477891 -7.009751 -8.809283 14.572510 -1.861112 36.204444 -4.371522 11.456805 -6.508365 18.279893 -0.915591 -14.491578 -1.932802 -13.869499 42.066361 -3.271160 -16.912210 -6.942290 -20.887281 10.092301 -0.912741 -62.077390 20.489270 -14.569349 -60.656323 -53.380508 25.115084 -3.261368 3.270425 0.350720 -0.190800 -0.010010 -0.036030 -16.263208 8.753561 10.802993 -25.773692 -11.344888 -3.492084 -33.756129 -1.775313 0.475956 2.890451 -1.396201 -0.067870 0.036690 0.010780 -0.139030 
-1.401550 16.867530 -2.010220 -6.098428 -16.883067 -13.646309 -16.066269 15.563514 3.252780 8.917442 -2.309039 -13.163071 -5.623691 10.280351 36.285995 0.481529 7.064124 1.992421 0.056740 -0.155830 0.112470 17.168177 -9.635248 2.709372 -1.288658 -1.471712 2.614143 6.686714 -6.138235 15.738947 -0.323408 -4.026963 3.175188 -0.179570 -0.185660 -0.095820 -0.349314 -7.431751 -8.826659 14.332755 -1.971723 37.144187 -3.931630 11.652511 -7.031509 18.232495 -1.048922 -14.698513 -2.349383 -13.547481 43.448025 -3.297570 -16.906230 -7.103790 -20.164649 10.563661 -0.936007 -62.347723 21.076680 -14.561515 -62.112994 -52.593920 25.421387 -3.251078 3.252589 0.382980 -0.211910 0.006810 -0.051260 -16.797593 8.690180 10.995860 -25.354009 -11.759849 -3.771632 -34.565964 -3.037999 0.777584 2.902393 -1.378997 -0.071240 0.030250 0.015860 -0.156120 
-1.400520 16.861740 -2.020930 -5.771677 -17.530855 -14.038913 -16.090165 15.652542 3.242332 8.442852 -2.373950 -12.713894 -5.095320 10.063725 36.539142 0.477816 7.048391 1.994923 0.058800 -0.162660 0.124630 17.147655 -9.597885 2.656703 -1.721582 -1.436512 2.654684 6.587252 -6.197060 16.139020 -0.330070 -4.026969 3.168141 -0.186890 -0.204070 -0.098790 -0.260939 -7.682639 -8.825399 13.674694 -1.981745 37.774965 -3.189312 11.493925 -6.872076 18.019395 -1.222902 -14.920789 -2.787354 -12.990145 44.814879 -3.225300 -16.769010 -7.000840 -19.027552 10.743456 -0.671250 -63.314710 21.538134 -15.058665 -63.579237 -52.239340 25.788671 -3.231915 3.244355 0.408590 -0.229220 0.021240 -0.058760 -17.353001 8.638713 11.138828 -24.774029 -11.695816 -4.373492 -35.563686 -4.985488 1.154644 2.925929 -1.368617 -0.074290 0.027920 0.016420 -0.167170 
-1.398320 16.857060 -2.033620 -5.410438 -18.260970 -14.543802 -16.117805 15.730534 3.246344 8.108037 -2.446005 -12.252383 -4.924726 10.038284 36.877065 0.486923 7.092503 1.972811 0.069910 -0.153380 0.140970 17.128627 -9.541434 2.593761 -2.167242 -1.410310 2.780935 6.467462 -6.252340 16.564530 -0.342976 -4.032250 3.155804 -0.184900 -0.229100 -0.103430 -0.167303 -7.958738 -8.830701 12.937661 -1.999228 38.617610 -2.645647 11.322043 -6.892264 17.912160 -1.420171 -15.012669 -3.252845 -12.373294 46.229539 -3.142950 -16.537700 -7.289110 -18.312226 10.933926 -0.614459 -63.422636 21.817759 -15.284098 -64.596049 -51.478336 25.739365 -3.210776 3.238364 0.433090 -0.250790 0.040240 -0.066500 -17.714539 8.599181 11.235894 -24.054120 -11.430613 -5.048545 -36.899781 -6.805357 1.552832 2.946990 -1.367797 -0.073320 0.026020 0.012780 -0.177510 
-1.398210 16.853000 -2.041420 -5.091144 -18.908293 -14.683777 -16.142853 15.778318 3.268166 7.706199 -2.570356 -12.124082 -4.881388 10.057614 37.209013 0.507380 7.134438 1.955859 0.063040 -0.166290 0.150110 17.109902 -9.500940 2.535614 -2.602775 -1.349745 2.640219 6.503876 -6.314269 16.890354 -0.338467 -4.022380 3.158389 -0.198950 -0.245380 -0.110020 -0.078830 -8.160262 -8.846214 12.250606 -1.875946 39.065224 -2.117531 11.431632 -7.427686 17.715766 -1.430079 -15.256598 -3.295694 -12.040141 47.562516 -3.322100 -16.437570 -6.713340 -17.508871 11.321669 -0.528670 -63.610053 22.381807 -15.414170 -65.091728 -50.668241 25.498010 -3.200115 3.222574 0.443220 -0.261640 0.047670 -0.077760 -18.057607 8.493036 11.463558 -23.091592 -11.478045 -5.462907 -38.175668 -8.103799 1.976293 2.969419 -1.366618 -0.072010 0.020730 0.013750 -0.185320 
-1.394930 16.856650 -2.046450 -4.940894 -19.813221 -14.742400 -16.177581 15.852149 3.282715 7.586997 -2.581560 -11.966180 -5.059070 10.153361 37.194845 0.518568 7.178562 1.941804 0.046490 -0.195310 0.150630 17.087050 -9.417452 2.483577 -2.806705 -1.296949 2.574646 6.404829 -6.293912 17.008797 -0.331266 -3.989917 3.165120 -0.218040 -0.250540 -0.111170 0.039108 -8.462463 -8.880914 11.844233 -1.659134 39.562213 -1.508729 11.837448 -8.085937 17.541196 -1.571042 -15.476491 -3.664529 -11.615403 49.037073 -3.524940 -16.501300 -5.948680 -17.369845 11.316093 -0.362011 -63.448854 23.002830 -15.547201 -65.415934 -49.839683 25.073055 -3.198461 3.201413 0.457890 -0.268570 0.051830 -0.087840 -17.759409 8.830086 11.507134 -23.335561 -12.005308 -5.539500 -38.942941 -9.045476 2.376483 2.954987 -1.356933 -0.077960 0.019400 0.023720 -0.191950 
